<svg width="699" height="547" viewBox="0 0 699 547" fill="none" xmlns="http://www.w3.org/2000/svg">
<path d="M180.394 385.775L517.522 385.775V131.596L180.394 131.596L180.394 385.775Z" fill="#E6E6E6"/>
<path opacity="0.05" d="M508.645 199.672C508.645 199.672 501.655 197.622 499.226 208.617C496.797 219.612 497.933 221.989 503.088 224.747C508.243 227.505 505.604 245.359 496.22 244.978C486.836 244.597 479.2 236.722 474.604 244.978C470.008 253.233 465.359 313.925 446.154 300.752C426.949 287.58 422.651 237.412 422.651 237.412L388.33 236.886V276.24L415.031 275.677C415.031 275.677 418.526 324.013 456.01 334.808C457.876 335.325 459.622 336.23 461.141 337.468C462.66 338.706 463.922 340.252 464.848 342.011C465.775 343.771 466.347 345.707 466.531 347.703C466.715 349.7 466.507 351.714 465.919 353.624L455.836 385.757H513.87V343.372C513.87 343.372 516.631 211.811 508.645 199.672Z" fill="black"/>
<path opacity="0.45" d="M511.318 449.823C566.967 449.823 612.079 442.845 612.079 434.237C612.079 425.63 566.967 418.652 511.318 418.652C455.67 418.652 410.558 425.63 410.558 434.237C410.558 442.845 455.67 449.823 511.318 449.823Z" fill="#E6E6E6"/>
<path opacity="0.45" d="M158.288 449.823C206.882 449.823 246.275 442.845 246.275 434.237C246.275 425.63 206.882 418.652 158.288 418.652C109.695 418.652 70.3018 425.63 70.3018 434.237C70.3018 442.845 109.695 449.823 158.288 449.823Z" fill="#E6E6E6"/>
<path opacity="0.58" d="M584.993 418.652C584.993 418.652 595.268 415.785 597.54 405.951C597.54 405.951 581.655 402.54 581.131 419.577L584.993 418.652Z" fill="#116CFF"/>
<path opacity="0.73" d="M583.665 417.617C583.665 417.617 590.882 405.896 584.626 394.865C581.153 397.274 578.582 400.848 577.342 404.989C576.101 409.13 576.267 413.588 577.811 417.617H583.665Z" fill="#116CFF"/>
<path d="M581.917 417.617C581.917 417.617 578.178 405.189 566.749 402.776C566.749 402.776 564.565 410.832 574.089 417.617H581.917Z" fill="#116CFF"/>
<path d="M589.344 417.382L587.195 432.133H574.106L572.236 417.382H589.344Z" fill="#24285B"/>
<path d="M506.95 237.43C506.95 237.43 485.123 234.4 480.737 253.342C476.351 272.284 475.739 298.502 458.194 303.746C440.649 308.99 430.968 272.593 430.968 272.593C430.968 272.593 426.897 262.378 422.51 260.981C418.124 259.584 414.996 269.672 422.51 275.841C422.51 275.841 428.854 322.325 462.458 320.692C496.063 319.059 506.95 271.141 506.95 237.43Z" fill="#F4A28C"/>
<path opacity="0.08" d="M506.95 237.43C506.95 237.43 485.123 234.4 480.737 253.342C476.351 272.284 475.739 298.502 458.194 303.746C440.649 308.99 430.968 272.593 430.968 272.593C430.968 272.593 426.897 262.378 422.51 260.981C418.124 259.584 414.996 269.672 422.51 275.841C422.51 275.841 428.854 322.325 462.458 320.692C496.063 319.059 506.95 271.141 506.95 237.43Z" fill="black"/>
<path d="M506.95 237.43C506.95 237.43 483.516 232.622 480.231 252.29C478.443 263.558 475.399 274.573 471.161 285.112L489.056 291.136L506.95 237.43Z" fill="#116CFF"/>
<path opacity="0.46" d="M506.95 237.43C506.95 237.43 483.516 232.622 480.231 252.29C478.443 263.558 475.399 274.573 471.161 285.112L489.056 291.136L506.95 237.43Z" fill="white"/>
<path d="M508.068 205.478C506.413 209.159 505.238 213.051 504.573 217.054C504.52 217.537 504.561 218.026 504.693 218.491C504.825 218.957 505.046 219.391 505.343 219.767C505.64 220.142 506.006 220.452 506.42 220.678C506.834 220.904 507.288 221.042 507.754 221.082C509.236 221.334 510.757 221.136 512.134 220.512C513.51 219.887 514.684 218.863 515.513 217.562L519.619 212.337C520.337 211.199 520.695 209.857 520.645 208.498C520.595 207.139 520.139 205.83 519.34 204.753C516.579 200.543 509.694 201.342 508.068 205.478Z" fill="#F4A28C"/>
<path d="M518.029 213.534L519.689 237.43H506.95L510.759 220.483L518.029 213.534Z" fill="#F4A28C"/>
<path d="M506.373 209.742L503.595 211.665C503.436 211.772 503.305 211.919 503.215 212.092C503.125 212.264 503.078 212.458 503.078 212.654C503.078 212.851 503.125 213.044 503.215 213.217C503.305 213.389 503.436 213.536 503.595 213.643L505.936 215.113L506.373 209.742Z" fill="#F4A28C"/>
<path opacity="0.31" d="M510.655 220.883C512.189 220.602 513.621 219.893 514.796 218.832C514.796 218.832 515.635 224.003 509.554 225.745L510.655 220.883Z" fill="#CE8172"/>
<path d="M513.87 213.244C513.87 213.244 514.866 210.613 516.701 211.557C518.535 212.5 517.137 216.292 514.411 215.639L513.87 213.244Z" fill="#F4A28C"/>
<path d="M483.918 373.473L473.136 424.349H479.409L500.379 373.473H483.918Z" fill="#F4A28C"/>
<path d="M518.99 367.304L530.489 424.349H536.797L535.836 366.887L518.99 367.304Z" fill="#F4A28C"/>
<path d="M473.136 424.349C473.136 424.349 469.641 428.921 465.202 428.703C460.763 428.486 460.099 434.999 467.264 434.328C469.495 434.135 471.705 433.74 473.869 433.149C475.863 432.677 477.941 432.752 479.898 433.366C480.28 433.464 480.682 433.435 481.048 433.286C481.414 433.137 481.727 432.873 481.943 432.532C483.97 430.046 478.99 424.349 478.99 424.349H473.136Z" fill="#116CFF"/>
<path d="M536.325 424.349C536.325 424.349 539.82 428.921 544.259 428.703C548.698 428.486 549.362 434.999 542.214 434.328C539.983 434.136 537.773 433.742 535.609 433.149C533.609 432.677 531.526 432.752 529.562 433.366C529.183 433.465 528.783 433.437 528.419 433.288C528.056 433.138 527.747 432.874 527.535 432.532C525.491 430.046 530.489 424.349 530.489 424.349H536.325Z" fill="#116CFF"/>
<path d="M506.95 237.43H519.689C519.689 237.43 520.563 237.43 522.066 237.43C549.868 238.355 566.015 270.416 551.249 294.892C543.036 308.5 533.232 326.843 532.586 337.802L483.044 335.189C483.044 335.189 486.784 301.823 477.609 282.753C477.609 282.772 460.729 252.743 506.95 237.43Z" fill="#116CFF"/>
<path opacity="0.08" d="M529.073 254.902C529.073 254.902 522.922 268.129 521.454 291.916C519.986 315.703 485.228 287.598 485.228 287.598L483.621 326.898L534.211 329.746L538.422 313.816C538.422 313.816 551.686 289.086 529.073 254.902Z" fill="black"/>
<path d="M482.718 322.531L515.747 318.514L509.771 265.533L476.742 269.55L482.718 322.531Z" fill="#FAAA2E"/>
<path d="M486.144 272.904L501.521 271.035L500.645 263.268L485.268 265.138L486.144 272.904Z" fill="#24285B"/>
<path d="M483.621 326.898L534.211 329.674L547.736 382.872L474.604 380.168L483.621 326.898Z" fill="#24285B"/>
<path opacity="0.08" d="M478.745 287.67L513.87 302.222L515.722 318.57L482.694 322.598L478.745 287.67Z" fill="black"/>
<path d="M529.492 257.443C529.408 255.102 530.034 252.793 531.28 250.841C532.526 248.889 534.331 247.392 536.44 246.56C538.549 245.729 540.855 245.605 543.036 246.207C545.216 246.808 547.159 248.104 548.592 249.913C555.776 258.862 559.577 270.219 559.287 281.864C558.868 312.999 554.831 346.711 490.139 309.879L493.634 300.008C493.634 300.008 522.345 314.342 534.333 309.697C543.14 306.25 530.401 278.834 529.492 257.443Z" fill="#F4A28C"/>
<path d="M493.616 299.99C493.616 299.99 482.834 294.674 478.238 299.99C473.642 305.306 480.947 310.078 490.139 309.86L493.616 299.99Z" fill="#F4A28C"/>
<path d="M506.95 201.958L504.73 207.71L513.87 211.339C513.87 211.339 514.394 217.725 511.161 218.887C511.911 218.847 512.645 218.651 513.32 218.312C513.996 217.972 514.599 217.495 515.093 216.909C515.478 216.47 516.013 216.204 516.583 216.166C517.154 216.129 517.716 216.324 518.151 216.709L518.256 216.818C520.88 214.141 522.726 210.752 523.586 207.039C524.634 201.414 518.571 200.543 518.571 200.543C518.571 200.543 510.55 194.701 506.95 201.958Z" fill="#24285B"/>
<path d="M518.571 200.561C518.571 200.561 518.99 195.118 528.392 196.007C537.793 196.896 528.392 210.032 536.116 222.316C536.116 222.316 521.909 219.195 521.507 205.986L518.571 200.561Z" fill="#24285B"/>
<path d="M517.994 200.18C518.706 199.778 519.516 199.601 520.324 199.672C521.131 199.743 521.901 200.059 522.538 200.579C525.194 202.394 526.365 208.69 522.171 210.885C522.171 210.885 525.648 202.249 517.994 200.18Z" fill="#FAAA2E"/>
<path d="M533.599 291.136H561.157C561.157 291.136 564.18 249.405 541.375 243.962C518.57 238.518 533.599 291.136 533.599 291.136Z" fill="#116CFF"/>
<path opacity="0.46" d="M533.599 291.136H561.157C561.157 291.136 564.18 249.405 541.375 243.962C518.57 238.518 533.599 291.136 533.599 291.136Z" fill="white"/>
<path d="M401.977 269.581H443.306V233.783H401.977V269.581Z" fill="#24285B"/>
<path opacity="0.62" d="M439.007 264.029L429.151 245.776L422.249 259.293L413.895 247.826L405.525 264.029H439.007Z" fill="white"/>
<path d="M420.728 247.137C422.543 247.137 424.013 245.61 424.013 243.726C424.013 241.842 422.543 240.315 420.728 240.315C418.914 240.315 417.443 241.842 417.443 243.726C417.443 245.61 418.914 247.137 420.728 247.137Z" fill="white"/>
<path opacity="0.05" d="M205.349 254.358L183.435 254.975L176.218 385.775H207.673C209.42 379.551 213.964 347.183 231.054 328.44C247.865 309.988 316.507 262.16 291.361 229.864C279.128 214.133 258.577 274.189 258.577 274.189L226.214 278.181L228.433 276.984L205.349 254.358Z" fill="black"/>
<path d="M157.048 221.699L160.683 233.003L152.068 238.682L148.975 219.104L157.048 221.699Z" fill="#F4A28C"/>
<path d="M146.021 208.182C146.467 207.095 147.169 206.143 148.063 205.413C148.956 204.683 150.013 204.199 151.135 204.005C152.257 203.812 153.408 203.915 154.481 204.306C155.554 204.697 156.515 205.362 157.275 206.24C160.927 210.305 165.348 216.764 160.351 220.266C152.714 225.709 145.689 215.603 145.689 215.603C145.085 213.15 145.201 210.566 146.021 208.182Z" fill="#F4A28C"/>
<path d="M151.613 215.113C151.613 215.113 149.638 213.407 148.765 215.839C147.891 218.27 151.333 219.467 152.364 218.197C153.396 216.927 151.613 215.113 151.613 215.113Z" fill="#F4A28C"/>
<path d="M134.313 244.47C134.313 244.47 98.9084 266.642 94.2426 318.86C93.8403 323.198 94.9557 327.542 97.3847 331.097C99.8138 334.652 103.394 337.18 107.471 338.219L148.974 348.616L134.313 244.47Z" fill="#116CFF"/>
<path opacity="0.2" d="M134.313 244.47C134.313 244.47 98.9084 266.642 94.2426 318.86C93.8403 323.198 94.9557 327.542 97.3847 331.097C99.8138 334.652 103.394 337.18 107.471 338.219L148.974 348.616L134.313 244.47Z" fill="white"/>
<path d="M149.177 307.77L94.7769 333.725L111.121 370.655L165.522 344.7L149.177 307.77Z" fill="#FAAA2E"/>
<path d="M152.697 212.192C152.697 212.192 156.751 224.275 149.674 223.513C142.596 222.751 146.458 217.562 142.946 212.192C139.433 206.821 141.198 203.12 146.65 198.457C149.114 196.297 150.757 195.281 151.753 194.138C152.17 193.63 152.704 193.239 153.305 193.002C153.907 192.765 154.556 192.69 155.193 192.785C155.83 192.879 156.433 193.139 156.947 193.54C157.461 193.942 157.868 194.472 158.132 195.082C159.966 199.727 159.984 205.932 152.697 212.192Z" fill="#24285B"/>
<path d="M126.117 255.356C127.797 251.481 130.262 248.028 133.344 245.232C136.426 242.436 140.053 240.362 143.977 239.153C159.127 234.436 187.874 224.529 196.402 239.153C208.022 259.275 190.128 338.292 190.128 338.292L139.223 342.447C139.223 342.447 111.246 290.029 126.117 255.356Z" fill="#116CFF"/>
<path d="M190.093 338.328L183.4 429.139H172.828L163.374 358.577L139.992 342.429L190.093 338.328Z" fill="#24285B"/>
<path d="M139.992 342.429L125.4 429.139H136.742L161.224 357.107L139.992 342.429Z" fill="#24285B"/>
<path opacity="0.08" d="M148.38 237.738C148.38 237.738 124.579 317.318 193.291 322.579L190.093 338.328L139.224 342.447C127.534 321.046 121.607 296.774 122.063 272.176C122.063 272.176 122.5 251.891 136.253 242.909C139.896 240.312 144.03 238.549 148.38 237.738Z" fill="black"/>
<path d="M127.463 429.139L120.473 434.582C120.215 434.784 120.024 435.065 119.927 435.386C119.83 435.706 119.831 436.05 119.931 436.37C120.031 436.689 120.225 436.968 120.485 437.168C120.745 437.368 121.058 437.479 121.381 437.485H133.177C133.587 437.485 133.98 437.317 134.271 437.019C134.562 436.72 134.728 436.314 134.732 435.888V429.211L127.463 429.139Z" fill="#116CFF"/>
<path d="M183.103 429.139L189.726 434.582C189.988 434.787 190.18 435.073 190.276 435.399C190.372 435.725 190.366 436.073 190.259 436.395C190.153 436.717 189.951 436.996 189.682 437.192C189.414 437.388 189.093 437.49 188.765 437.485H180.359C179.173 437.485 178.035 436.996 177.196 436.125C176.357 435.254 175.886 434.072 175.886 432.84V429.211L183.103 429.139Z" fill="#116CFF"/>
<path d="M287.149 231.007L279.6 228.703L246.066 258.985C243.601 261.202 240.616 262.705 237.413 263.343C234.21 263.98 230.901 263.728 227.822 262.614C218.704 259.393 210.95 252.978 205.891 244.47C193.868 224.221 173.439 231.533 173.439 231.533C173.439 231.533 158.044 247.282 188.538 274.298C206.747 290.428 225.393 291.444 237.468 289.648C238.941 289.463 240.423 289.361 241.907 289.34C243.333 289.289 244.737 288.963 246.048 288.378C247.671 287.657 249.252 286.839 250.784 285.929C263.156 278.508 276.49 262.795 287.149 231.007Z" fill="#116CFF"/>
<path opacity="0.2" d="M287.149 231.007L279.6 228.703L246.066 258.985C243.601 261.202 240.616 262.705 237.413 263.343C234.21 263.98 230.901 263.728 227.822 262.614C218.704 259.393 210.95 252.978 205.891 244.47C193.868 224.221 173.439 231.533 173.439 231.533C173.439 231.533 158.044 247.282 188.538 274.298C206.747 290.428 225.393 291.444 237.468 289.648C238.941 289.463 240.423 289.361 241.907 289.34C243.333 289.289 244.737 288.963 246.048 288.378C247.671 287.657 249.252 286.839 250.784 285.929C263.156 278.508 276.49 262.795 287.149 231.007Z" fill="white"/>
<path d="M279.6 228.703C279.6 228.703 283.847 216.002 287.219 215.113C290.592 214.224 287.219 221.899 287.219 221.899C287.219 221.899 296.481 226.616 287.219 230.971L279.6 228.703Z" fill="#F4A28C"/>
<path opacity="0.55" d="M316.42 262.16L309.255 271.486C301.635 281.414 298.037 294.032 299.224 306.667L300.605 321.182L321.575 301.405L316.42 262.16Z" fill="#878787"/>
<path opacity="0.55" d="M366.73 262.16L373.895 271.486C381.522 281.41 385.12 294.032 383.926 306.667L382.563 321.182L361.593 301.405L366.73 262.16Z" fill="#878787"/>
<path opacity="0.55" d="M332.025 304.49C332.025 304.49 338.561 344.407 327.813 347.763C317.066 351.12 312.086 333.103 297.896 343.826C283.707 354.549 301.898 366.361 276.839 363.077C251.78 359.793 242.064 372.62 247.97 385.775H432.908C432.908 385.775 442.187 373.564 431.86 365.254C429.615 363.501 427.033 362.269 424.289 361.643C421.545 361.017 418.704 361.011 415.957 361.625C415.2 361.758 414.423 361.717 413.682 361.503C412.941 361.29 412.255 360.91 411.671 360.391C411.088 359.872 410.621 359.225 410.305 358.498C409.989 357.771 409.83 356.98 409.841 356.182C409.946 352.245 409.299 347.781 406.346 345.06C402.851 341.739 395.424 345.205 389.902 348.689C383.633 352.701 376.253 354.425 368.932 353.587C362.519 352.789 355.948 350.576 354.166 345.096C350.374 333.502 352.68 303.71 352.68 303.71L332.025 304.49Z" fill="white"/>
<path d="M341.601 179.351C341.601 179.351 288.652 209.524 321.592 301.387H361.627C394.568 209.524 341.601 179.351 341.601 179.351Z" fill="#C1C1C1"/>
<path d="M361.628 301.387L359.845 308.427H323.515L321.592 300.553L361.628 301.387Z" fill="#878787"/>
<path d="M341.986 247.355C349.494 247.355 355.581 241.035 355.581 233.239C355.581 225.443 349.494 219.123 341.986 219.123C334.477 219.123 328.39 225.443 328.39 233.239C328.39 241.035 334.477 247.355 341.986 247.355Z" fill="#E6E6E6"/>
<path d="M204.51 166.378C209.21 166.378 213.02 162.422 213.02 157.542C213.02 152.662 209.21 148.706 204.51 148.706C199.81 148.706 196 152.662 196 157.542C196 162.422 199.81 166.378 204.51 166.378Z" fill="#FAAA2E"/>
<path d="M228.451 166.378C233.151 166.378 236.961 162.422 236.961 157.542C236.961 152.662 233.151 148.706 228.451 148.706C223.751 148.706 219.94 152.662 219.94 157.542C219.94 162.422 223.751 166.378 228.451 166.378Z" fill="#116CFF"/>
<path d="M251.396 166.378C256.096 166.378 259.906 162.422 259.906 157.542C259.906 152.662 256.096 148.706 251.396 148.706C246.695 148.706 242.885 152.662 242.885 157.542C242.885 162.422 246.695 166.378 251.396 166.378Z" fill="#24285B"/>
<path d="M493.616 105.052H378.98V187.588H493.616V105.052Z" fill="#F4F4F4"/>
<path d="M418.998 152.661H406.102V169.789H418.998V152.661Z" fill="#C1C1C1"/>
<path d="M443.096 139.489H430.2V169.789H443.096V139.489Z" fill="#C1C1C1"/>
<path d="M466.74 126.044H453.843V169.789H466.74V126.044Z" fill="#C1C1C1"/>
<path opacity="0.7" d="M514 27H612.325V95.9693H514V27Z" fill="white"/>
<path opacity="0.43" d="M581.08 77.5474C572.68 77.5474 565.87 70.7258 565.87 62.311C565.87 53.8962 572.68 47.0747 581.08 47.0747C589.48 47.0747 596.29 53.8962 596.29 62.311C596.29 70.7258 589.48 77.5474 581.08 77.5474Z" fill="#FE5757"/>
<path opacity="0.43" d="M556.465 38.9607H582.91V65.4515H556.465V38.9607Z" fill="#FFF2BC"/>
<path opacity="0.43" d="M528.1 38.9607H547.825V82.8666H528.1V38.9607Z" fill="#A5ADF9"/>
<path opacity="0.7" d="M82.0002 43H180.325V111.969H82.0002V43Z" fill="white"/>
<path opacity="0.43" d="M149.08 93.5474C140.68 93.5474 133.87 86.7258 133.87 78.311C133.87 69.8962 140.68 63.0747 149.08 63.0747C157.48 63.0747 164.29 69.8962 164.29 78.311C164.29 86.7258 157.48 93.5474 149.08 93.5474Z" fill="#FE5757"/>
<path opacity="0.43" d="M124.465 54.9607H150.91V81.4515H124.465V54.9607Z" fill="#FFF2BC"/>
<path opacity="0.43" d="M96.1002 54.9607H115.825V98.8666H96.1002V54.9607Z" fill="#A5ADF9"/>
</svg>
